<svg width="96" height="78" viewBox="0 0 96 78" fill="none" xmlns="http://www.w3.org/2000/svg">
<path d="M89 40.5C89 62.8675 71.3675 70 49 70C26.6325 70 8 62.8675 8 40.5C8 18.1325 26.1325 0 48.5 0C70.8675 0 89 18.1325 89 40.5Z" fill="white"/>
<path d="M84 40.5C84 60.1061 66.1061 71 46.5 71C26.8939 71 13 60.1061 13 40.5C13 20.8939 28.8939 5 48.5 5C68.1061 5 84 20.8939 84 40.5Z" fill="black"/>
<circle cx="48.5" cy="40.5" r="30.5" fill="white"/>
<circle cx="48.5" cy="40.5" r="25.5" fill="black"/>
<circle cx="48.5" cy="40.5" r="20.5" fill="white"/>
<circle cx="48.5" cy="40.5" r="15.5" fill="black"/>
<circle cx="48.5" cy="40.5" r="10.5" fill="white"/>
<mask id="path-8-outside-1_101_29" maskUnits="userSpaceOnUse" x="0" y="40" width="96" height="35" fill="black">
<rect fill="white" y="40" width="96" height="35"/>
<path d="M4.756 45.16C4.684 44.896 5.896 44.764 8.392 44.764C11.152 44.764 12.568 44.992 12.64 45.448L14.404 60.604L18.22 45.268C18.34 44.908 19.276 44.728 21.028 44.728C22.78 44.728 23.716 44.896 23.836 45.232L27.58 60.676L29.668 45.376C29.716 45.112 30.268 44.932 31.324 44.836C32.38 44.74 33.232 44.692 33.88 44.692C36.4 44.692 37.624 44.86 37.552 45.196L33.196 69.064C33.1 69.424 32.416 69.688 31.144 69.856C29.872 70.024 28.84 70.108 28.048 70.108C25.072 70.108 23.512 69.772 23.368 69.1L20.92 59.2L18.256 69.064C18.16 69.496 17.32 69.808 15.736 70C14.92 70.072 14.104 70.108 13.288 70.108L10.984 70C9.4 69.832 8.56 69.532 8.464 69.1L4.756 45.16ZM42.4885 63.808V50.992H39.9325C39.5245 50.992 39.2365 50.476 39.0685 49.444C38.9965 48.94 38.9605 48.424 38.9605 47.896C38.9605 47.368 38.9965 46.852 39.0685 46.348C39.2365 45.316 39.5245 44.8 39.9325 44.8H52.0285C52.4365 44.8 52.7125 45.316 52.8565 46.348C52.9525 46.852 53.0005 47.368 53.0005 47.896C53.0005 48.424 52.9525 48.94 52.8565 49.444C52.7125 50.476 52.4365 50.992 52.0285 50.992H49.6165V63.808H52.1365C52.5445 63.808 52.8325 64.324 53.0005 65.356C53.0965 65.86 53.1445 66.376 53.1445 66.904C53.1445 67.432 53.0965 67.948 53.0005 68.452C52.8325 69.484 52.5445 70 52.1365 70H40.0045C39.5965 70 39.3205 69.484 39.1765 68.452C39.0805 67.948 39.0325 67.432 39.0325 66.904C39.0325 66.376 39.0805 65.86 39.1765 65.356C39.3205 64.324 39.5965 63.808 40.0045 63.808H42.4885ZM73.2221 51.316C73.2221 53.812 72.1421 55.708 69.9821 57.004C71.1581 57.436 72.1421 58.18 72.9341 59.236C73.7261 60.292 74.1221 61.792 74.1221 63.736C74.1221 65.656 73.4021 67.18 71.9621 68.308C70.5461 69.436 68.5061 70 65.8421 70H57.3461C56.9381 70 56.6021 69.868 56.3381 69.604C56.0741 69.316 55.9421 68.944 55.9421 68.488V45.448C55.9421 45.184 55.9781 45.016 56.0501 44.944C56.1461 44.848 56.3261 44.8 56.5901 44.8H64.7981C70.4141 44.8 73.2221 46.972 73.2221 51.316ZM62.8541 50.632V55.348H63.0341C65.3381 55.348 66.4901 54.58 66.4901 53.044C66.4901 52.204 66.2621 51.592 65.8061 51.208C65.3741 50.824 64.6421 50.632 63.6101 50.632H62.8541ZM62.8541 59.596V64.276H63.5021C64.5341 64.276 65.2901 64.084 65.7701 63.7C66.2501 63.316 66.4901 62.704 66.4901 61.864C66.4901 61.024 66.2621 60.436 65.8061 60.1C65.3741 59.764 64.6421 59.596 63.6101 59.596H62.8541ZM88.6211 54.808C89.0771 54.808 89.3051 55.648 89.3051 57.328C89.3051 57.832 89.2451 58.432 89.1251 59.128C89.0291 59.8 88.8371 60.136 88.5491 60.136H83.9771V63.736H90.6011C91.0091 63.736 91.2851 64.264 91.4291 65.32C91.5011 65.776 91.5371 66.268 91.5371 66.796C91.5371 67.3 91.4651 67.96 91.3211 68.776C91.1771 69.592 90.9371 70 90.6011 70H78.2891C77.3771 70 76.9211 69.628 76.9211 68.884V45.736C76.9211 45.112 77.1971 44.8 77.7491 44.8H90.6371C91.1411 44.8 91.3931 45.868 91.3931 48.004C91.3931 50.116 91.1411 51.172 90.6371 51.172H83.9771V54.808H88.6211Z"/>
</mask>
<path d="M4.756 45.16C4.684 44.896 5.896 44.764 8.392 44.764C11.152 44.764 12.568 44.992 12.64 45.448L14.404 60.604L18.22 45.268C18.34 44.908 19.276 44.728 21.028 44.728C22.78 44.728 23.716 44.896 23.836 45.232L27.58 60.676L29.668 45.376C29.716 45.112 30.268 44.932 31.324 44.836C32.38 44.74 33.232 44.692 33.88 44.692C36.4 44.692 37.624 44.86 37.552 45.196L33.196 69.064C33.1 69.424 32.416 69.688 31.144 69.856C29.872 70.024 28.84 70.108 28.048 70.108C25.072 70.108 23.512 69.772 23.368 69.1L20.92 59.2L18.256 69.064C18.16 69.496 17.32 69.808 15.736 70C14.92 70.072 14.104 70.108 13.288 70.108L10.984 70C9.4 69.832 8.56 69.532 8.464 69.1L4.756 45.16ZM42.4885 63.808V50.992H39.9325C39.5245 50.992 39.2365 50.476 39.0685 49.444C38.9965 48.94 38.9605 48.424 38.9605 47.896C38.9605 47.368 38.9965 46.852 39.0685 46.348C39.2365 45.316 39.5245 44.8 39.9325 44.8H52.0285C52.4365 44.8 52.7125 45.316 52.8565 46.348C52.9525 46.852 53.0005 47.368 53.0005 47.896C53.0005 48.424 52.9525 48.94 52.8565 49.444C52.7125 50.476 52.4365 50.992 52.0285 50.992H49.6165V63.808H52.1365C52.5445 63.808 52.8325 64.324 53.0005 65.356C53.0965 65.86 53.1445 66.376 53.1445 66.904C53.1445 67.432 53.0965 67.948 53.0005 68.452C52.8325 69.484 52.5445 70 52.1365 70H40.0045C39.5965 70 39.3205 69.484 39.1765 68.452C39.0805 67.948 39.0325 67.432 39.0325 66.904C39.0325 66.376 39.0805 65.86 39.1765 65.356C39.3205 64.324 39.5965 63.808 40.0045 63.808H42.4885ZM73.2221 51.316C73.2221 53.812 72.1421 55.708 69.9821 57.004C71.1581 57.436 72.1421 58.18 72.9341 59.236C73.7261 60.292 74.1221 61.792 74.1221 63.736C74.1221 65.656 73.4021 67.18 71.9621 68.308C70.5461 69.436 68.5061 70 65.8421 70H57.3461C56.9381 70 56.6021 69.868 56.3381 69.604C56.0741 69.316 55.9421 68.944 55.9421 68.488V45.448C55.9421 45.184 55.9781 45.016 56.0501 44.944C56.1461 44.848 56.3261 44.8 56.5901 44.8H64.7981C70.4141 44.8 73.2221 46.972 73.2221 51.316ZM62.8541 50.632V55.348H63.0341C65.3381 55.348 66.4901 54.58 66.4901 53.044C66.4901 52.204 66.2621 51.592 65.8061 51.208C65.3741 50.824 64.6421 50.632 63.6101 50.632H62.8541ZM62.8541 59.596V64.276H63.5021C64.5341 64.276 65.2901 64.084 65.7701 63.7C66.2501 63.316 66.4901 62.704 66.4901 61.864C66.4901 61.024 66.2621 60.436 65.8061 60.1C65.3741 59.764 64.6421 59.596 63.6101 59.596H62.8541ZM88.6211 54.808C89.0771 54.808 89.3051 55.648 89.3051 57.328C89.3051 57.832 89.2451 58.432 89.1251 59.128C89.0291 59.8 88.8371 60.136 88.5491 60.136H83.9771V63.736H90.6011C91.0091 63.736 91.2851 64.264 91.4291 65.32C91.5011 65.776 91.5371 66.268 91.5371 66.796C91.5371 67.3 91.4651 67.96 91.3211 68.776C91.1771 69.592 90.9371 70 90.6011 70H78.2891C77.3771 70 76.9211 69.628 76.9211 68.884V45.736C76.9211 45.112 77.1971 44.8 77.7491 44.8H90.6371C91.1411 44.8 91.3931 45.868 91.3931 48.004C91.3931 50.116 91.1411 51.172 90.6371 51.172H83.9771V54.808H88.6211Z" fill="white"/>
<path d="M4.756 45.16L8.70887 44.5477C8.68588 44.3994 8.65456 44.2524 8.61505 44.1075L4.756 45.16ZM12.64 45.448L16.6132 44.9856C16.6069 44.9316 16.5995 44.8778 16.5911 44.8241L12.64 45.448ZM14.404 60.604L10.4308 61.0664C10.6543 62.9866 12.219 64.4722 14.1482 64.5958C16.0773 64.7195 17.8189 63.4458 18.2856 61.5699L14.404 60.604ZM18.22 45.268L14.4253 44.0031C14.3924 44.1016 14.3634 44.2014 14.3384 44.3021L18.22 45.268ZM23.836 45.232L27.7234 44.2896C27.6903 44.1533 27.6502 44.0188 27.603 43.8867L23.836 45.232ZM27.58 60.676L23.6926 61.6184C24.1456 63.487 25.8641 64.769 27.7843 64.6708C29.7046 64.5726 31.2833 63.122 31.5433 61.2169L27.58 60.676ZM29.668 45.376L25.7325 44.6605C25.722 44.7185 25.7127 44.7767 25.7047 44.8351L29.668 45.376ZM31.324 44.836L30.9619 40.8524L30.9619 40.8524L31.324 44.836ZM37.552 45.196L33.6408 44.3579C33.6323 44.3977 33.6243 44.4377 33.617 44.4778L37.552 45.196ZM33.196 69.064L37.0609 70.0947C37.0885 69.9915 37.1118 69.8872 37.131 69.7822L33.196 69.064ZM31.144 69.856L30.6202 65.8904L30.6202 65.8904L31.144 69.856ZM23.368 69.1L27.2792 68.2619C27.2705 68.2211 27.2611 68.1804 27.2511 68.1398L23.368 69.1ZM20.92 59.2L24.803 58.2398C24.3654 56.4698 22.786 55.2197 20.9627 55.2002C19.1395 55.1807 17.5338 56.3968 17.0584 58.1571L20.92 59.2ZM18.256 69.064L14.3944 68.0211C14.3787 68.0791 14.3643 68.1376 14.3513 68.1963L18.256 69.064ZM15.736 70L16.0876 73.9845C16.1309 73.9807 16.1742 73.9762 16.2173 73.9709L15.736 70ZM13.288 70.108L13.1007 74.1036C13.1631 74.1065 13.2255 74.108 13.288 74.108L13.288 70.108ZM10.984 70L10.5621 73.9777C10.6401 73.986 10.7184 73.9919 10.7967 73.9956L10.984 70ZM8.464 69.1L4.51113 69.7122C4.5244 69.7979 4.54045 69.8831 4.55925 69.9677L8.464 69.1ZM8.61505 44.1075C8.8167 44.8469 8.8061 45.6699 8.524 46.4588C8.25934 47.199 7.83166 47.7009 7.50963 47.9996C6.93373 48.5339 6.36316 48.7278 6.25529 48.7653C5.95169 48.8707 5.80197 48.8659 6.04408 48.8395C6.42421 48.7981 7.17191 48.764 8.392 48.764V40.764C7.11609 40.764 6.00979 40.7959 5.17792 40.8865C4.81403 40.9261 4.21881 41.0038 3.63021 41.2082C3.37984 41.2952 2.7069 41.5427 2.06874 42.1348C1.25922 42.8857 0.395138 44.3725 0.896945 46.2125L8.61505 44.1075ZM8.392 48.764C9.71564 48.764 10.5028 48.8221 10.8881 48.8841C11.1095 48.9198 10.9637 48.9212 10.6633 48.7832C10.5052 48.7104 10.1395 48.5252 9.75329 48.1475C9.33689 47.7403 8.8432 47.0488 8.68895 46.0718L16.5911 44.8241C16.2443 42.6279 14.4817 41.7336 14.0047 41.5143C13.3323 41.2053 12.6465 41.0642 12.1599 40.9859C11.1292 40.8199 9.82836 40.764 8.392 40.764V48.764ZM8.66682 45.9104L10.4308 61.0664L18.3772 60.1416L16.6132 44.9856L8.66682 45.9104ZM18.2856 61.5699L22.1016 46.2339L14.3384 44.3021L10.5224 59.6381L18.2856 61.5699ZM22.0147 46.5329C21.5681 47.8728 20.5764 48.4437 20.2842 48.5931C19.9396 48.7693 19.7085 48.8023 19.7674 48.791C19.8603 48.7732 20.2326 48.728 21.028 48.728V40.728C20.0714 40.728 19.0997 40.7728 18.2566 40.935C17.8475 41.0137 17.2504 41.1592 16.6418 41.4704C16.0856 41.7548 14.9319 42.4832 14.4253 44.0031L22.0147 46.5329ZM21.028 48.728C21.8292 48.728 22.221 48.7702 22.3373 48.7911C22.4095 48.804 22.1979 48.7779 21.8701 48.6214C21.6951 48.5379 21.3912 48.3723 21.0648 48.0761C20.727 47.7696 20.3199 47.2799 20.069 46.5773L27.603 43.8867C27.0478 42.3323 25.8211 41.6427 25.3159 41.4016C24.7241 41.1191 24.1465 40.988 23.7507 40.9169C22.931 40.7698 21.9788 40.728 21.028 40.728V48.728ZM19.9486 46.1744L23.6926 61.6184L31.4674 59.7336L27.7234 44.2896L19.9486 46.1744ZM31.5433 61.2169L33.6313 45.9169L25.7047 44.8351L23.6167 60.1351L31.5433 61.2169ZM33.6035 46.0915C33.3727 47.3611 32.5985 48.0979 32.1779 48.4091C31.7706 48.7105 31.4281 48.8231 31.3581 48.8459C31.2056 48.8956 31.2548 48.8588 31.6861 48.8196L30.9619 40.8524C30.3372 40.9092 29.5824 41.0104 28.8779 41.2401C28.5319 41.3529 27.9764 41.566 27.4191 41.9784C26.8485 42.4006 25.9873 43.2589 25.7325 44.6605L33.6035 46.0915ZM31.6861 48.8196C32.687 48.7286 33.4043 48.692 33.88 48.692V40.692C33.0597 40.692 32.073 40.7514 30.9619 40.8524L31.6861 48.8196ZM33.88 48.692C35.1043 48.692 35.8149 48.7357 36.1441 48.7808C36.365 48.8112 36.14 48.8065 35.7597 48.6401C35.5845 48.5635 35.012 48.3003 34.4812 47.681C34.1896 47.3408 33.883 46.8597 33.7042 46.2338C33.5208 45.5918 33.5148 44.9457 33.6408 44.3579L41.4632 46.0341C41.7695 44.6047 41.2814 43.3219 40.5553 42.4747C39.9615 41.782 39.2855 41.4505 38.9663 41.3109C38.298 41.0185 37.623 40.9088 37.2319 40.8552C36.3371 40.7323 35.1757 40.692 33.88 40.692V48.692ZM33.617 44.4778L29.261 68.3458L37.131 69.7822L41.487 45.9142L33.617 44.4778ZM29.3311 68.0333C29.5913 67.0573 30.17 66.4685 30.515 66.1925C30.8487 65.9255 31.1211 65.8194 31.1707 65.8003C31.2644 65.7642 31.1389 65.8219 30.6202 65.8904L31.6678 73.8216C32.4211 73.7221 33.2736 73.5638 34.0513 73.2637C34.5244 73.0811 36.4716 72.3047 37.0609 70.0947L29.3311 68.0333ZM30.6202 65.8904C29.4297 66.0477 28.5915 66.108 28.048 66.108V74.108C29.0885 74.108 30.3143 74.0003 31.6678 73.8216L30.6202 65.8904ZM28.048 66.108C26.6448 66.108 25.8484 66.0233 25.4882 65.9457C25.2945 65.9039 25.4645 65.9128 25.7781 66.0983C26.0957 66.2862 26.9938 66.93 27.2792 68.2619L19.4568 69.9381C19.8142 71.606 20.9613 72.5438 21.705 72.9837C22.4445 73.4212 23.2175 73.6401 23.8038 73.7663C25.0036 74.0247 26.4752 74.108 28.048 74.108V66.108ZM27.2511 68.1398L24.803 58.2398L17.037 60.1602L19.485 70.0602L27.2511 68.1398ZM17.0584 58.1571L14.3944 68.0211L22.1176 70.1069L24.7816 60.2429L17.0584 58.1571ZM14.3513 68.1963C14.5859 67.1402 15.2065 66.5117 15.5555 66.2342C15.89 65.9683 16.1525 65.8756 16.1613 65.8723C16.1787 65.8658 15.9366 65.9464 15.2547 66.0291L16.2173 73.9709C17.1194 73.8616 18.0893 73.6902 18.9467 73.3717C19.3755 73.2124 19.965 72.9487 20.5335 72.4968C21.1166 72.0333 21.8781 71.2038 22.1607 69.9317L14.3513 68.1963ZM15.3844 66.0155C14.6849 66.0772 13.9862 66.108 13.288 66.108V74.108C14.2218 74.108 15.1551 74.0668 16.0876 73.9845L15.3844 66.0155ZM13.4753 66.1124L11.1713 66.0044L10.7967 73.9956L13.1007 74.1036L13.4753 66.1124ZM11.4059 66.0223C10.7241 65.95 10.4869 65.8733 10.5113 65.882C10.5235 65.8864 10.7951 65.9789 11.1396 66.2484C11.5022 66.5319 12.132 67.1669 12.3687 68.2323L4.55925 69.9677C4.844 71.2491 5.61477 72.0836 6.21136 72.5501C6.78994 73.0026 7.38847 73.2616 7.82065 73.416C8.68511 73.7247 9.6599 73.882 10.5621 73.9777L11.4059 66.0223ZM12.4169 68.4878L8.70887 44.5477L0.803134 45.7722L4.51113 69.7122L12.4169 68.4878ZM42.4885 63.808V67.808C44.6976 67.808 46.4885 66.0171 46.4885 63.808H42.4885ZM42.4885 50.992H46.4885C46.4885 48.7829 44.6976 46.992 42.4885 46.992V50.992ZM39.0685 49.444L35.1087 50.0097C35.1124 50.0354 35.1163 50.0611 35.1205 50.0867L39.0685 49.444ZM39.0685 46.348L35.1205 45.7053C35.1163 45.7309 35.1124 45.7566 35.1087 45.7823L39.0685 46.348ZM52.8565 46.348L48.8949 46.9008C48.904 46.9663 48.9148 47.0315 48.9271 47.0965L52.8565 46.348ZM52.8565 49.444L48.9271 48.6955C48.9148 48.7605 48.904 48.8257 48.8949 48.8912L52.8565 49.444ZM49.6165 50.992V46.992C47.4074 46.992 45.6165 48.7829 45.6165 50.992H49.6165ZM49.6165 63.808H45.6165C45.6165 66.0171 47.4074 67.808 49.6165 67.808V63.808ZM53.0005 65.356L49.0525 65.9987C49.0582 66.034 49.0644 66.0693 49.0711 66.1044L53.0005 65.356ZM53.0005 68.452L49.0711 67.7036C49.0644 67.7387 49.0582 67.774 49.0525 67.8093L53.0005 68.452ZM39.1765 68.452L43.1381 67.8992C43.129 67.8337 43.1182 67.7685 43.1059 67.7036L39.1765 68.452ZM39.1765 65.356L43.1059 66.1044C43.1182 66.0395 43.129 65.9743 43.1381 65.9088L39.1765 65.356ZM46.4885 63.808V50.992H38.4885V63.808H46.4885ZM42.4885 46.992H39.9325V54.992H42.4885V46.992ZM39.9325 46.992C40.7432 46.992 41.4744 47.2692 42.0312 47.682C42.5338 48.0546 42.7937 48.4592 42.9033 48.6555C43.0966 49.0018 43.0741 49.1552 43.0165 48.8013L35.1205 50.0867C35.2309 50.7648 35.4364 51.6922 35.9177 52.5545C36.4167 53.4485 37.6779 54.992 39.9325 54.992V46.992ZM43.0283 48.8783C42.984 48.5685 42.9605 48.2417 42.9605 47.896H34.9605C34.9605 48.6063 35.009 49.3115 35.1087 50.0097L43.0283 48.8783ZM42.9605 47.896C42.9605 47.5503 42.984 47.2235 43.0283 46.9137L35.1087 45.7823C35.009 46.4805 34.9605 47.1857 34.9605 47.896H42.9605ZM43.0165 46.9907C43.0741 46.6368 43.0966 46.7902 42.9033 47.1365C42.7937 47.3328 42.5338 47.7374 42.0312 48.11C41.4744 48.5228 40.7432 48.8 39.9325 48.8V40.8C37.6779 40.8 36.4167 42.3435 35.9177 43.2375C35.4364 44.0998 35.2309 45.0272 35.1205 45.7053L43.0165 46.9907ZM39.9325 48.8H52.0285V40.8H39.9325V48.8ZM52.0285 48.8C51.2158 48.8 50.4722 48.521 49.9008 48.09C49.3864 47.7019 49.1245 47.2796 49.0144 47.0736C48.8204 46.711 48.8454 46.546 48.8949 46.9008L56.8181 45.7952C56.7236 45.118 56.5386 44.179 56.0686 43.3004C55.5741 42.3758 54.3101 40.8 52.0285 40.8V48.8ZM48.9271 47.0965C48.9748 47.3467 49.0005 47.6118 49.0005 47.896H57.0005C57.0005 47.1242 56.9302 46.3573 56.7859 45.5995L48.9271 47.0965ZM49.0005 47.896C49.0005 48.1802 48.9748 48.4453 48.9271 48.6955L56.7859 50.1924C56.9302 49.4347 57.0005 48.6678 57.0005 47.896H49.0005ZM48.8949 48.8912C48.8454 49.246 48.8204 49.081 49.0144 48.7184C49.1245 48.5124 49.3864 48.0901 49.9008 47.702C50.4722 47.271 51.2158 46.992 52.0285 46.992V54.992C54.3101 54.992 55.5741 53.4162 56.0686 52.4916C56.5386 51.613 56.7236 50.674 56.8181 49.9968L48.8949 48.8912ZM52.0285 46.992H49.6165V54.992H52.0285V46.992ZM45.6165 50.992V63.808H53.6165V50.992H45.6165ZM49.6165 67.808H52.1365V59.808H49.6165V67.808ZM52.1365 67.808C51.3259 67.808 50.5946 67.5308 50.0378 67.118C49.5352 66.7454 49.2753 66.3408 49.1657 66.1445C48.9724 65.7982 48.9949 65.6448 49.0525 65.9987L56.9485 64.7133C56.8381 64.0352 56.6326 63.1078 56.1513 62.2455C55.6523 61.3515 54.3911 59.808 52.1365 59.808V67.808ZM49.0711 66.1044C49.1188 66.3547 49.1445 66.6198 49.1445 66.904H57.1445C57.1445 66.1322 57.0742 65.3653 56.9299 64.6075L49.0711 66.1044ZM49.1445 66.904C49.1445 67.1882 49.1188 67.4533 49.0711 67.7036L56.9299 69.2004C57.0742 68.4427 57.1445 67.6758 57.1445 66.904H49.1445ZM49.0525 67.8093C48.9949 68.1632 48.9724 68.0098 49.1657 67.6635C49.2753 67.4672 49.5352 67.0626 50.0378 66.69C50.5946 66.2772 51.3259 66 52.1365 66V74C54.3911 74 55.6523 72.4565 56.1513 71.5625C56.6326 70.7002 56.8381 69.7728 56.9485 69.0947L49.0525 67.8093ZM52.1365 66H40.0045V74H52.1365V66ZM40.0045 66C40.8172 66 41.5608 66.279 42.1322 66.71C42.6466 67.0981 42.9085 67.5204 43.0186 67.7264C43.2126 68.089 43.1876 68.254 43.1381 67.8992L35.2149 69.0048C35.3094 69.682 35.4944 70.621 35.9644 71.4996C36.4589 72.4242 37.7229 74 40.0045 74V66ZM43.1059 67.7036C43.0582 67.4533 43.0325 67.1882 43.0325 66.904H35.0325C35.0325 67.6758 35.1028 68.4427 35.2471 69.2004L43.1059 67.7036ZM43.0325 66.904C43.0325 66.6198 43.0582 66.3547 43.1059 66.1044L35.2471 64.6076C35.1028 65.3653 35.0325 66.1322 35.0325 66.904H43.0325ZM43.1381 65.9088C43.1876 65.554 43.2126 65.719 43.0186 66.0816C42.9085 66.2876 42.6466 66.7099 42.1322 67.098C41.5608 67.529 40.8172 67.808 40.0045 67.808V59.808C37.7229 59.808 36.4589 61.3838 35.9644 62.3084C35.4944 63.187 35.3094 64.126 35.2149 64.8032L43.1381 65.9088ZM40.0045 67.808H42.4885V59.808H40.0045V67.808ZM69.9821 57.004L67.9241 53.574C66.6034 54.3665 65.855 55.8468 65.9998 57.3802C66.1447 58.9136 67.1571 60.2276 68.6028 60.7587L69.9821 57.004ZM72.9341 59.236L76.1341 56.836L76.1341 56.836L72.9341 59.236ZM71.9621 68.308L69.4954 65.1591C69.4869 65.1658 69.4783 65.1726 69.4698 65.1794L71.9621 68.308ZM56.3381 69.604L53.3895 72.3069C53.4286 72.3496 53.4687 72.3915 53.5097 72.4324L56.3381 69.604ZM56.0501 44.944L53.2217 42.1156L53.2217 42.1156L56.0501 44.944ZM62.8541 50.632V46.632C60.645 46.632 58.8541 48.4229 58.8541 50.632H62.8541ZM62.8541 55.348H58.8541C58.8541 57.5571 60.645 59.348 62.8541 59.348V55.348ZM65.8061 51.208L63.1486 54.1976C63.1753 54.2213 63.2023 54.2447 63.2296 54.2676L65.8061 51.208ZM62.8541 59.596V55.596C60.645 55.596 58.8541 57.3869 58.8541 59.596H62.8541ZM62.8541 64.276H58.8541C58.8541 66.4851 60.645 68.276 62.8541 68.276V64.276ZM65.7701 63.7L68.2689 66.8235L68.2689 66.8235L65.7701 63.7ZM65.8061 60.1L63.3503 63.2574C63.3777 63.2787 63.4054 63.2996 63.4333 63.3202L65.8061 60.1ZM69.2221 51.316C69.2221 52.3911 68.8929 52.9927 67.9241 53.574L72.0401 60.434C75.3912 58.4233 77.2221 55.2329 77.2221 51.316H69.2221ZM68.6028 60.7587C69.0141 60.9097 69.3794 61.1631 69.7341 61.636L76.1341 56.836C74.9048 55.1969 73.3021 53.9623 71.3614 53.2493L68.6028 60.7587ZM69.7341 61.636C69.8128 61.7409 70.1221 62.2658 70.1221 63.736H78.1221C78.1221 61.3182 77.6394 58.8431 76.1341 56.836L69.7341 61.636ZM70.1221 63.736C70.1221 64.4973 69.9131 64.8319 69.4954 65.1591L74.4287 71.4569C76.8911 69.5281 78.1221 66.8147 78.1221 63.736H70.1221ZM69.4698 65.1794C69.0281 65.5312 68.0125 66 65.8421 66V74C68.9997 74 72.0641 73.3408 74.4544 71.4366L69.4698 65.1794ZM65.8421 66H57.3461V74H65.8421V66ZM57.3461 66C57.5779 66 57.8961 66.0387 58.2507 66.178C58.6123 66.32 58.9232 66.5323 59.1665 66.7756L53.5097 72.4324C54.5971 73.5199 55.9856 74 57.3461 74V66ZM59.2867 66.9011C59.521 67.1567 59.6993 67.4572 59.8108 67.7714C59.9188 68.0758 59.9421 68.3298 59.9421 68.488H51.9421C51.9421 69.7665 52.3377 71.1595 53.3895 72.3069L59.2867 66.9011ZM59.9421 68.488V45.448H51.9421V68.488H59.9421ZM59.9421 45.448C59.9421 45.4649 59.9438 45.6656 59.8803 45.9621C59.847 46.1177 59.782 46.3654 59.6505 46.6575C59.5204 46.9466 59.2872 47.3638 58.8785 47.7724L53.2217 42.1156C52.3821 42.9551 52.1385 43.9098 52.0579 44.2859C51.9583 44.7504 51.9421 45.1671 51.9421 45.448H59.9421ZM58.8785 47.7724C58.2774 48.3736 57.6355 48.6082 57.2877 48.7009C56.9342 48.7952 56.6739 48.8 56.5901 48.8V40.8C56.147 40.8 54.5196 40.8176 53.2217 42.1156L58.8785 47.7724ZM56.5901 48.8H64.7981V40.8H56.5901V48.8ZM64.7981 48.8C67.2016 48.8 68.2692 49.2839 68.6688 49.5929C68.8734 49.7512 69.2221 50.0745 69.2221 51.316H77.2221C77.2221 48.2135 76.1668 45.2788 73.5634 43.265C71.155 41.4021 68.0106 40.8 64.7981 40.8V48.8ZM58.8541 50.632V55.348H66.8541V50.632H58.8541ZM62.8541 59.348H63.0341V51.348H62.8541V59.348ZM63.0341 59.348C64.5042 59.348 66.3063 59.1259 67.8449 58.1002C69.6697 56.8837 70.4901 54.9772 70.4901 53.044H62.4901C62.4901 52.9256 62.5141 52.6277 62.6964 52.2631C62.8869 51.882 63.1609 51.608 63.4073 51.4438C63.627 51.2974 63.7566 51.2819 63.6784 51.2993C63.6017 51.3163 63.4005 51.348 63.0341 51.348V59.348ZM70.4901 53.044C70.4901 51.5266 70.0655 49.5655 68.3826 48.1484L63.2296 54.2676C62.8807 53.9739 62.6739 53.6282 62.5708 53.3514C62.4783 53.1033 62.4901 52.9709 62.4901 53.044H70.4901ZM68.4636 48.2184C66.9087 46.8362 64.928 46.632 63.6101 46.632V54.632C63.8985 54.632 63.9788 54.661 63.9182 54.6451C63.8566 54.6289 63.5259 54.533 63.1486 54.1976L68.4636 48.2184ZM63.6101 46.632H62.8541V54.632H63.6101V46.632ZM58.8541 59.596V64.276H66.8541V59.596H58.8541ZM62.8541 68.276H63.5021V60.276H62.8541V68.276ZM63.5021 68.276C64.8786 68.276 66.7383 68.048 68.2689 66.8235L63.2713 60.5765C63.5793 60.3301 63.8274 60.263 63.8585 60.2551C63.8779 60.2501 63.8605 60.2561 63.7973 60.2629C63.7345 60.2696 63.6378 60.276 63.5021 60.276V68.276ZM68.2689 66.8235C70.0142 65.4272 70.4901 63.4459 70.4901 61.864H62.4901C62.4901 61.917 62.4808 61.7613 62.5862 61.4927C62.7035 61.1934 62.9264 60.8525 63.2713 60.5765L68.2689 66.8235ZM70.4901 61.864C70.4901 60.3943 70.083 58.2828 68.1789 56.8798L63.4333 63.3202C62.9819 62.9876 62.7181 62.5703 62.5896 62.2391C62.4763 61.9469 62.4901 61.7839 62.4901 61.864H70.4901ZM68.2619 56.9426C66.7329 55.7534 64.8507 55.596 63.6101 55.596V63.596C63.7615 63.596 63.8727 63.6022 63.9486 63.6095C64.0255 63.6168 64.0521 63.6238 64.0383 63.6206C64.0254 63.6177 63.9515 63.6 63.8365 63.5502C63.7205 63.4999 63.5465 63.41 63.3503 63.2574L68.2619 56.9426ZM63.6101 55.596H62.8541V63.596H63.6101V55.596ZM89.1251 59.128L85.1833 58.4484C85.1767 58.4863 85.1707 58.5242 85.1653 58.5623L89.1251 59.128ZM83.9771 60.136V56.136C81.768 56.136 79.9771 57.9269 79.9771 60.136H83.9771ZM83.9771 63.736H79.9771C79.9771 65.9451 81.768 67.736 83.9771 67.736V63.736ZM91.4291 65.32L87.4658 65.8605C87.4696 65.8883 87.4737 65.9161 87.478 65.9439L91.4291 65.32ZM91.3211 68.776L87.382 68.0809L87.382 68.0809L91.3211 68.776ZM83.9771 51.172V47.172C81.768 47.172 79.9771 48.9629 79.9771 51.172H83.9771ZM83.9771 54.808H79.9771C79.9771 57.0171 81.768 58.808 83.9771 58.808V54.808ZM88.6211 58.808C88.0366 58.808 87.4497 58.6667 86.9184 58.387C86.4055 58.1171 86.0491 57.7743 85.8186 57.4912C85.4004 56.9777 85.2847 56.5261 85.2738 56.4858C85.2449 56.3795 85.3051 56.5783 85.3051 57.328H93.3051C93.3051 56.3977 93.2513 55.3365 92.9944 54.3902C92.8695 53.9299 92.6113 53.1633 92.0221 52.4398C91.3355 51.5966 90.1685 50.808 88.6211 50.808V58.808ZM85.3051 57.328C85.3051 57.5341 85.2786 57.8951 85.1833 58.4484L93.0669 59.8076C93.2115 58.9689 93.3051 58.1299 93.3051 57.328H85.3051ZM85.1653 58.5623C85.1431 58.7178 85.1604 58.3819 85.4361 57.8994C85.5912 57.6281 85.9005 57.183 86.4532 56.7961C87.0532 56.3761 87.7854 56.136 88.5491 56.136V64.136C90.6131 64.136 91.8523 62.7956 92.3821 61.8686C92.8497 61.0501 93.0111 60.2102 93.0849 59.6937L85.1653 58.5623ZM88.5491 56.136H83.9771V64.136H88.5491V56.136ZM79.9771 60.136V63.736H87.9771V60.136H79.9771ZM83.9771 67.736H90.6011V59.736H83.9771V67.736ZM90.6011 67.736C89.7644 67.736 89.0086 67.4417 88.4381 67.0014C87.9273 66.607 87.6726 66.1828 87.5692 65.985C87.3865 65.6355 87.4151 65.4885 87.4658 65.8605L95.3924 64.7795C95.2991 64.0955 95.1177 63.1565 94.659 62.279C94.1867 61.3754 92.9308 59.736 90.6011 59.736V67.736ZM87.478 65.9439C87.5132 66.1666 87.5371 66.4478 87.5371 66.796H95.5371C95.5371 66.0882 95.489 65.3854 95.3801 64.6961L87.478 65.9439ZM87.5371 66.796C87.5371 66.9667 87.5077 67.3682 87.382 68.0809L95.2602 69.4711C95.4225 68.5518 95.5371 67.6333 95.5371 66.796H87.5371ZM87.382 68.0809C87.3403 68.317 87.3466 68.0718 87.5854 67.6659C87.7195 67.4379 88.0043 67.0268 88.523 66.6594C89.0908 66.2572 89.8136 66 90.6011 66V74C92.7299 74 93.9686 72.5929 94.4808 71.7221C94.9596 70.9082 95.1579 70.051 95.2602 69.4711L87.382 68.0809ZM90.6011 66H78.2891V74H90.6011V66ZM78.2891 66C78.3199 66 78.4876 66.0017 78.7402 66.0704C79.0015 66.1415 79.3919 66.2955 79.7916 66.6215C80.7331 67.3896 80.9211 68.3999 80.9211 68.884H72.9211C72.9211 70.1121 73.3371 71.6804 74.7346 72.8205C75.9763 73.8334 77.3918 74 78.2891 74V66ZM80.9211 68.884V45.736H72.9211V68.884H80.9211ZM80.9211 45.736C80.9211 45.9281 80.8892 46.8193 80.1241 47.6843C79.2762 48.6428 78.2255 48.8 77.7491 48.8V40.8C76.7207 40.8 75.256 41.1132 74.1321 42.3837C73.0909 43.5607 72.9211 44.9199 72.9211 45.736H80.9211ZM77.7491 48.8H90.6371V40.8H77.7491V48.8ZM90.6371 48.8C89.9523 48.8 89.2973 48.6076 88.7426 48.2718C88.2198 47.9553 87.8908 47.5765 87.703 47.3113C87.5164 47.0476 87.4191 46.8259 87.3753 46.7145C87.329 46.5967 87.312 46.5239 87.311 46.5196C87.311 46.5194 87.336 46.6348 87.3582 46.9159C87.3793 47.1846 87.3931 47.543 87.3931 48.004H95.3931C95.3931 46.8595 95.3329 45.6813 95.0972 44.6824C94.9852 44.208 94.7589 43.4326 94.2327 42.6892C93.6357 41.8458 92.4369 40.8 90.6371 40.8V48.8ZM87.3931 48.004C87.3931 48.4582 87.3793 48.8101 87.3584 49.0728C87.3365 49.3481 87.312 49.4573 87.3133 49.4515C87.3151 49.4443 87.3331 49.3687 87.381 49.2482C87.4264 49.1339 87.5259 48.9102 87.7154 48.6456C87.9064 48.3788 88.2376 48.003 88.7597 47.6905C89.3125 47.3595 89.9616 47.172 90.6371 47.172V55.172C92.4166 55.172 93.6145 54.1486 94.2203 53.3024C94.7523 52.5593 94.9816 51.7831 95.0948 51.3085C95.3329 50.3108 95.3931 49.1375 95.3931 48.004H87.3931ZM90.6371 47.172H83.9771V55.172H90.6371V47.172ZM79.9771 51.172V54.808H87.9771V51.172H79.9771ZM83.9771 58.808H88.6211V50.808H83.9771V58.808Z" fill="white" mask="url(#path-8-outside-1_101_29)"/>
<mask id="path-10-outside-2_101_29" maskUnits="userSpaceOnUse" x="2" y="42" width="92" height="31" fill="black">
<rect fill="white" x="2" y="42" width="92" height="31"/>
<path d="M4.756 45.16C4.684 44.896 5.896 44.764 8.392 44.764C11.152 44.764 12.568 44.992 12.64 45.448L14.404 60.604L18.22 45.268C18.34 44.908 19.276 44.728 21.028 44.728C22.78 44.728 23.716 44.896 23.836 45.232L27.58 60.676L29.668 45.376C29.716 45.112 30.268 44.932 31.324 44.836C32.38 44.74 33.232 44.692 33.88 44.692C36.4 44.692 37.624 44.86 37.552 45.196L33.196 69.064C33.1 69.424 32.416 69.688 31.144 69.856C29.872 70.024 28.84 70.108 28.048 70.108C25.072 70.108 23.512 69.772 23.368 69.1L20.92 59.2L18.256 69.064C18.16 69.496 17.32 69.808 15.736 70C14.92 70.072 14.104 70.108 13.288 70.108L10.984 70C9.4 69.832 8.56 69.532 8.464 69.1L4.756 45.16ZM42.4885 63.808V50.992H39.9325C39.5245 50.992 39.2365 50.476 39.0685 49.444C38.9965 48.94 38.9605 48.424 38.9605 47.896C38.9605 47.368 38.9965 46.852 39.0685 46.348C39.2365 45.316 39.5245 44.8 39.9325 44.8H52.0285C52.4365 44.8 52.7125 45.316 52.8565 46.348C52.9525 46.852 53.0005 47.368 53.0005 47.896C53.0005 48.424 52.9525 48.94 52.8565 49.444C52.7125 50.476 52.4365 50.992 52.0285 50.992H49.6165V63.808H52.1365C52.5445 63.808 52.8325 64.324 53.0005 65.356C53.0965 65.86 53.1445 66.376 53.1445 66.904C53.1445 67.432 53.0965 67.948 53.0005 68.452C52.8325 69.484 52.5445 70 52.1365 70H40.0045C39.5965 70 39.3205 69.484 39.1765 68.452C39.0805 67.948 39.0325 67.432 39.0325 66.904C39.0325 66.376 39.0805 65.86 39.1765 65.356C39.3205 64.324 39.5965 63.808 40.0045 63.808H42.4885ZM73.2221 51.316C73.2221 53.812 72.1421 55.708 69.9821 57.004C71.1581 57.436 72.1421 58.18 72.9341 59.236C73.7261 60.292 74.1221 61.792 74.1221 63.736C74.1221 65.656 73.4021 67.18 71.9621 68.308C70.5461 69.436 68.5061 70 65.8421 70H57.3461C56.9381 70 56.6021 69.868 56.3381 69.604C56.0741 69.316 55.9421 68.944 55.9421 68.488V45.448C55.9421 45.184 55.9781 45.016 56.0501 44.944C56.1461 44.848 56.3261 44.8 56.5901 44.8H64.7981C70.4141 44.8 73.2221 46.972 73.2221 51.316ZM62.8541 50.632V55.348H63.0341C65.3381 55.348 66.4901 54.58 66.4901 53.044C66.4901 52.204 66.2621 51.592 65.8061 51.208C65.3741 50.824 64.6421 50.632 63.6101 50.632H62.8541ZM62.8541 59.596V64.276H63.5021C64.5341 64.276 65.2901 64.084 65.7701 63.7C66.2501 63.316 66.4901 62.704 66.4901 61.864C66.4901 61.024 66.2621 60.436 65.8061 60.1C65.3741 59.764 64.6421 59.596 63.6101 59.596H62.8541ZM88.6211 54.808C89.0771 54.808 89.3051 55.648 89.3051 57.328C89.3051 57.832 89.2451 58.432 89.1251 59.128C89.0291 59.8 88.8371 60.136 88.5491 60.136H83.9771V63.736H90.6011C91.0091 63.736 91.2851 64.264 91.4291 65.32C91.5011 65.776 91.5371 66.268 91.5371 66.796C91.5371 67.3 91.4651 67.96 91.3211 68.776C91.1771 69.592 90.9371 70 90.6011 70H78.2891C77.3771 70 76.9211 69.628 76.9211 68.884V45.736C76.9211 45.112 77.1971 44.8 77.7491 44.8H90.6371C91.1411 44.8 91.3931 45.868 91.3931 48.004C91.3931 50.116 91.1411 51.172 90.6371 51.172H83.9771V54.808H88.6211Z"/>
</mask>
<path d="M4.756 45.16C4.684 44.896 5.896 44.764 8.392 44.764C11.152 44.764 12.568 44.992 12.64 45.448L14.404 60.604L18.22 45.268C18.34 44.908 19.276 44.728 21.028 44.728C22.78 44.728 23.716 44.896 23.836 45.232L27.58 60.676L29.668 45.376C29.716 45.112 30.268 44.932 31.324 44.836C32.38 44.74 33.232 44.692 33.88 44.692C36.4 44.692 37.624 44.86 37.552 45.196L33.196 69.064C33.1 69.424 32.416 69.688 31.144 69.856C29.872 70.024 28.84 70.108 28.048 70.108C25.072 70.108 23.512 69.772 23.368 69.1L20.92 59.2L18.256 69.064C18.16 69.496 17.32 69.808 15.736 70C14.92 70.072 14.104 70.108 13.288 70.108L10.984 70C9.4 69.832 8.56 69.532 8.464 69.1L4.756 45.16ZM42.4885 63.808V50.992H39.9325C39.5245 50.992 39.2365 50.476 39.0685 49.444C38.9965 48.94 38.9605 48.424 38.9605 47.896C38.9605 47.368 38.9965 46.852 39.0685 46.348C39.2365 45.316 39.5245 44.8 39.9325 44.8H52.0285C52.4365 44.8 52.7125 45.316 52.8565 46.348C52.9525 46.852 53.0005 47.368 53.0005 47.896C53.0005 48.424 52.9525 48.94 52.8565 49.444C52.7125 50.476 52.4365 50.992 52.0285 50.992H49.6165V63.808H52.1365C52.5445 63.808 52.8325 64.324 53.0005 65.356C53.0965 65.86 53.1445 66.376 53.1445 66.904C53.1445 67.432 53.0965 67.948 53.0005 68.452C52.8325 69.484 52.5445 70 52.1365 70H40.0045C39.5965 70 39.3205 69.484 39.1765 68.452C39.0805 67.948 39.0325 67.432 39.0325 66.904C39.0325 66.376 39.0805 65.86 39.1765 65.356C39.3205 64.324 39.5965 63.808 40.0045 63.808H42.4885ZM73.2221 51.316C73.2221 53.812 72.1421 55.708 69.9821 57.004C71.1581 57.436 72.1421 58.18 72.9341 59.236C73.7261 60.292 74.1221 61.792 74.1221 63.736C74.1221 65.656 73.4021 67.18 71.9621 68.308C70.5461 69.436 68.5061 70 65.8421 70H57.3461C56.9381 70 56.6021 69.868 56.3381 69.604C56.0741 69.316 55.9421 68.944 55.9421 68.488V45.448C55.9421 45.184 55.9781 45.016 56.0501 44.944C56.1461 44.848 56.3261 44.8 56.5901 44.8H64.7981C70.4141 44.8 73.2221 46.972 73.2221 51.316ZM62.8541 50.632V55.348H63.0341C65.3381 55.348 66.4901 54.58 66.4901 53.044C66.4901 52.204 66.2621 51.592 65.8061 51.208C65.3741 50.824 64.6421 50.632 63.6101 50.632H62.8541ZM62.8541 59.596V64.276H63.5021C64.5341 64.276 65.2901 64.084 65.7701 63.7C66.2501 63.316 66.4901 62.704 66.4901 61.864C66.4901 61.024 66.2621 60.436 65.8061 60.1C65.3741 59.764 64.6421 59.596 63.6101 59.596H62.8541ZM88.6211 54.808C89.0771 54.808 89.3051 55.648 89.3051 57.328C89.3051 57.832 89.2451 58.432 89.1251 59.128C89.0291 59.8 88.8371 60.136 88.5491 60.136H83.9771V63.736H90.6011C91.0091 63.736 91.2851 64.264 91.4291 65.32C91.5011 65.776 91.5371 66.268 91.5371 66.796C91.5371 67.3 91.4651 67.96 91.3211 68.776C91.1771 69.592 90.9371 70 90.6011 70H78.2891C77.3771 70 76.9211 69.628 76.9211 68.884V45.736C76.9211 45.112 77.1971 44.8 77.7491 44.8H90.6371C91.1411 44.8 91.3931 45.868 91.3931 48.004C91.3931 50.116 91.1411 51.172 90.6371 51.172H83.9771V54.808H88.6211Z" fill="white"/>
<path d="M4.756 45.16L6.73243 44.8539C6.72094 44.7797 6.70528 44.7062 6.68553 44.6338L4.756 45.16ZM12.64 45.448L14.6266 45.2168C14.6235 45.1898 14.6198 45.1629 14.6155 45.1361L12.64 45.448ZM14.404 60.604L12.4174 60.8352C12.5292 61.7953 13.3115 62.5381 14.2761 62.5999C15.2407 62.6617 16.1114 62.0249 16.3448 61.0869L14.404 60.604ZM18.22 45.268L16.3226 44.6355C16.3062 44.6848 16.2917 44.7347 16.2792 44.7851L18.22 45.268ZM23.836 45.232L25.7797 44.7608C25.7632 44.6926 25.7431 44.6254 25.7195 44.5593L23.836 45.232ZM27.58 60.676L25.6363 61.1472C25.8628 62.0815 26.722 62.7225 27.6822 62.6734C28.6423 62.6243 29.4316 61.899 29.5616 60.9464L27.58 60.676ZM29.668 45.376L27.7003 45.0182C27.695 45.0472 27.6904 45.0764 27.6864 45.1056L29.668 45.376ZM31.324 44.836L31.1429 42.8442L31.1429 42.8442L31.324 44.836ZM37.552 45.196L35.5964 44.7769C35.5921 44.7969 35.5882 44.8169 35.5845 44.8369L37.552 45.196ZM33.196 69.064L35.1285 69.5793C35.1422 69.5277 35.1539 69.4756 35.1635 69.4231L33.196 69.064ZM31.144 69.856L30.8821 67.8732L30.8821 67.8732L31.144 69.856ZM23.368 69.1L25.3236 68.6809C25.3192 68.6605 25.3145 68.6402 25.3095 68.6199L23.368 69.1ZM20.92 59.2L22.8615 58.7199C22.6427 57.8349 21.853 57.2099 20.9414 57.2001C20.0297 57.1904 19.2269 57.7984 18.9892 58.6785L20.92 59.2ZM18.256 69.064L16.3252 68.5425C16.3173 68.5716 16.3102 68.6008 16.3036 68.6301L18.256 69.064ZM15.736 70L15.9118 71.9923C15.9334 71.9903 15.9551 71.9881 15.9767 71.9855L15.736 70ZM13.288 70.108L13.1944 72.1058C13.2255 72.1073 13.2568 72.108 13.288 72.108L13.288 70.108ZM10.984 70L10.7731 71.9888C10.8121 71.993 10.8512 71.996 10.8904 71.9978L10.984 70ZM8.464 69.1L6.48757 69.4061C6.4942 69.449 6.50222 69.4916 6.51163 69.5339L8.464 69.1ZM6.68553 44.6338C6.7841 44.9952 6.77906 45.3987 6.64077 45.7854C6.51121 46.1478 6.30264 46.3912 6.14941 46.5334C5.87702 46.7861 5.61733 46.8696 5.59902 46.876C5.51847 46.904 5.55498 46.8809 5.82754 46.8512C6.32061 46.7975 7.15795 46.764 8.392 46.764V42.764C7.13005 42.764 6.11339 42.7965 5.39446 42.8748C5.06102 42.9111 4.65203 42.9705 4.28648 43.0975C4.12567 43.1533 3.76361 43.2905 3.42896 43.601C3.00864 43.9909 2.57107 44.7498 2.82647 45.6862L6.68553 44.6338ZM8.392 46.764C9.74382 46.764 10.6594 46.8215 11.2061 46.9096C11.4937 46.9559 11.5559 46.9922 11.4987 46.966C11.4661 46.951 11.3193 46.8815 11.1516 46.7176C10.9689 46.5389 10.7371 46.2199 10.6645 45.7599L14.6155 45.1361C14.4331 43.981 13.5009 43.4839 13.1693 43.3315C12.7401 43.1343 12.2623 43.0281 11.8419 42.9604C10.9726 42.8205 9.80018 42.764 8.392 42.764V46.764ZM10.6534 45.6792L12.4174 60.8352L16.3906 60.3728L14.6266 45.2168L10.6534 45.6792ZM16.3448 61.0869L20.1608 45.7509L16.2792 44.7851L12.4632 60.1211L16.3448 61.0869ZM20.1174 45.9005C19.9091 46.5254 19.4537 46.7715 19.3736 46.8124C19.2673 46.8668 19.2433 46.8552 19.3897 46.827C19.6702 46.7731 20.1923 46.728 21.028 46.728V42.728C20.1117 42.728 19.2898 42.7729 18.6343 42.899C18.3127 42.9608 17.9227 43.0617 17.5524 43.2511C17.2083 43.427 16.5909 43.8306 16.3226 44.6355L20.1174 45.9005ZM21.028 46.728C21.8666 46.728 22.3985 46.7701 22.6907 46.8225C22.8438 46.85 22.8294 46.8632 22.7315 46.8165C22.677 46.7904 22.5517 46.7247 22.4088 46.595C22.2601 46.4601 22.0705 46.235 21.9525 45.9047L25.7195 44.5593C25.4269 43.7401 24.7731 43.3586 24.4545 43.2065C24.0926 43.0338 23.7122 42.942 23.3973 42.8855C22.7535 42.7699 21.9414 42.728 21.028 42.728V46.728ZM21.8923 45.7032L25.6363 61.1472L29.5237 60.2048L25.7797 44.7608L21.8923 45.7032ZM29.5616 60.9464L31.6496 45.6464L27.6864 45.1056L25.5984 60.4056L29.5616 60.9464ZM31.6357 45.7338C31.5263 46.3355 31.161 46.6736 30.9882 46.8014C30.8221 46.9244 30.704 46.9555 30.738 46.9445C30.7998 46.9243 31.0254 46.8714 31.5051 46.8278L31.1429 42.8442C30.5666 42.8966 29.9882 42.9817 29.498 43.1415C29.256 43.2204 28.9249 43.3521 28.6088 43.5861C28.286 43.8249 27.8337 44.2845 27.7003 45.0182L31.6357 45.7338ZM31.5051 46.8278C32.5335 46.7343 33.3181 46.692 33.88 46.692V42.692C33.1459 42.692 32.2265 42.7457 31.1429 42.8442L31.5051 46.8278ZM33.88 46.692C35.1221 46.692 35.9454 46.7348 36.416 46.7994C36.6795 46.8356 36.6795 46.8595 36.5614 46.8078C36.5097 46.7852 36.2494 46.6707 35.9997 46.3795C35.6839 46.011 35.4567 45.4286 35.5964 44.7769L39.5076 45.6151C39.6653 44.8794 39.4156 44.2183 39.0368 43.7763C38.7241 43.4115 38.3603 43.2288 38.1646 43.1432C37.7585 42.9655 37.3085 42.8844 36.96 42.8366C36.2066 42.7332 35.1579 42.692 33.88 42.692V46.692ZM35.5845 44.8369L31.2285 68.7049L35.1635 69.4231L39.5195 45.5551L35.5845 44.8369ZM31.2635 68.5487C31.3817 68.1057 31.6406 67.8533 31.7644 67.7543C31.8825 67.6598 31.9516 67.6427 31.8909 67.6662C31.8407 67.6855 31.7355 67.7195 31.5564 67.7591C31.3809 67.7978 31.1581 67.8368 30.8821 67.8732L31.4059 71.8388C32.1005 71.747 32.7713 71.6139 33.3312 71.3978C33.7387 71.2405 34.8098 70.7744 35.1285 69.5793L31.2635 68.5487ZM30.8821 67.8732C29.6508 68.0358 28.7158 68.108 28.048 68.108V72.108C28.9642 72.108 30.0932 72.0122 31.4059 71.8388L30.8821 67.8732ZM28.048 68.108C26.6024 68.108 25.6372 68.0236 25.0671 67.9008C24.7752 67.838 24.7095 67.7899 24.7598 67.8196C24.8121 67.8506 25.1989 68.099 25.3236 68.6809L21.4124 69.5191C21.6091 70.437 22.2449 70.9794 22.7232 71.2624C23.1995 71.5441 23.7368 71.706 24.2249 71.8112C25.2148 72.0244 26.5176 72.108 28.048 72.108V68.108ZM25.3095 68.6199L22.8615 58.7199L18.9785 59.6801L21.4265 69.5801L25.3095 68.6199ZM18.9892 58.6785L16.3252 68.5425L20.1868 69.5855L22.8508 59.7215L18.9892 58.6785ZM16.3036 68.6301C16.409 68.1561 16.684 67.8921 16.8 67.7999C16.9087 67.7134 16.9582 67.7098 16.8576 67.7471C16.6563 67.8219 16.2323 67.9252 15.4953 68.0145L15.9767 71.9855C16.8237 71.8828 17.6117 71.7341 18.2504 71.4969C18.5698 71.3782 18.9463 71.2036 19.289 70.9311C19.639 70.6529 20.055 70.1879 20.2084 69.4979L16.3036 68.6301ZM15.5602 68.0077C14.8024 68.0746 14.0451 68.108 13.288 68.108V72.108C14.1629 72.108 15.0376 72.0694 15.9118 71.9923L15.5602 68.0077ZM13.3816 68.1102L11.0776 68.0022L10.8904 71.9978L13.1944 72.1058L13.3816 68.1102ZM11.1949 68.0112C10.458 67.933 10.0364 67.8361 9.83867 67.7655C9.73976 67.7302 9.79378 67.7348 9.90757 67.8238C10.0304 67.9198 10.31 68.1875 10.4164 68.6661L6.51163 69.5339C6.666 70.2285 7.08664 70.6957 7.44343 70.9747C7.79122 71.2467 8.17224 71.4178 8.49333 71.5325C9.13555 71.7619 9.92595 71.899 10.7731 71.9888L11.1949 68.0112ZM10.4404 68.7939L6.73243 44.8539L2.77957 45.4661L6.48757 69.4061L10.4404 68.7939ZM42.4885 63.808V65.808C43.5931 65.808 44.4885 64.9126 44.4885 63.808H42.4885ZM42.4885 50.992H44.4885C44.4885 49.8874 43.5931 48.992 42.4885 48.992V50.992ZM39.0685 49.444L37.0886 49.7268C37.0904 49.7397 37.0924 49.7525 37.0945 49.7653L39.0685 49.444ZM39.0685 46.348L37.0945 46.0266C37.0924 46.0395 37.0904 46.0523 37.0886 46.0652L39.0685 46.348ZM52.8565 46.348L50.8757 46.6244C50.8803 46.6571 50.8856 46.6898 50.8918 46.7222L52.8565 46.348ZM52.8565 49.444L50.8918 49.0698C50.8856 49.1022 50.8803 49.1349 50.8757 49.1676L52.8565 49.444ZM49.6165 50.992V48.992C48.5119 48.992 47.6165 49.8874 47.6165 50.992H49.6165ZM49.6165 63.808H47.6165C47.6165 64.9126 48.5119 65.808 49.6165 65.808V63.808ZM53.0005 65.356L51.0265 65.6774C51.0294 65.695 51.0325 65.7126 51.0358 65.7302L53.0005 65.356ZM53.0005 68.452L51.0358 68.0778C51.0325 68.0954 51.0294 68.113 51.0265 68.1306L53.0005 68.452ZM39.1765 68.452L41.1573 68.1756C41.1527 68.1429 41.1474 68.1102 41.1412 68.0778L39.1765 68.452ZM39.1765 65.356L41.1412 65.7302C41.1474 65.6978 41.1527 65.6651 41.1573 65.6324L39.1765 65.356ZM44.4885 63.808V50.992H40.4885V63.808H44.4885ZM42.4885 48.992H39.9325V52.992H42.4885V48.992ZM39.9325 48.992C40.2868 48.992 40.6052 49.1145 40.8401 49.2886C41.0479 49.4427 41.1381 49.5966 41.1569 49.6303C41.1781 49.6683 41.1646 49.655 41.1355 49.5561C41.1078 49.462 41.0748 49.321 41.0425 49.1226L37.0945 49.7653C37.1917 50.3624 37.3515 51.0196 37.6641 51.5797C37.9856 52.1558 38.7032 52.992 39.9325 52.992V48.992ZM41.0484 49.1612C40.9903 48.7542 40.9605 48.3329 40.9605 47.896H36.9605C36.9605 48.5151 37.0027 49.1258 37.0886 49.7268L41.0484 49.1612ZM40.9605 47.896C40.9605 47.4591 40.9903 47.0378 41.0484 46.6308L37.0886 46.0652C37.0027 46.6662 36.9605 47.2769 36.9605 47.896H40.9605ZM41.0425 46.6694C41.0748 46.471 41.1078 46.33 41.1355 46.2359C41.1646 46.137 41.1781 46.1237 41.1569 46.1617C41.1381 46.1954 41.0479 46.3493 40.8401 46.5034C40.6052 46.6775 40.2868 46.8 39.9325 46.8V42.8C38.7032 42.8 37.9856 43.6362 37.6641 44.2123C37.3515 44.7724 37.1917 45.4296 37.0945 46.0266L41.0425 46.6694ZM39.9325 46.8H52.0285V42.8H39.9325V46.8ZM52.0285 46.8C51.6732 46.8 51.3482 46.6766 51.1053 46.4934C50.8908 46.3316 50.7985 46.1688 50.7779 46.1303C50.755 46.0874 50.7671 46.0971 50.7935 46.1945C50.8186 46.2868 50.8481 46.4266 50.8757 46.6244L54.8373 46.0716C54.7541 45.475 54.6091 44.812 54.3051 44.2437C53.9888 43.6524 53.2713 42.8 52.0285 42.8V46.8ZM50.8918 46.7222C50.9637 47.0993 51.0005 47.4899 51.0005 47.896H55.0005C55.0005 47.2461 54.9413 46.6047 54.8212 45.9738L50.8918 46.7222ZM51.0005 47.896C51.0005 48.3021 50.9637 48.6927 50.8918 49.0698L54.8212 49.8182C54.9413 49.1873 55.0005 48.5459 55.0005 47.896H51.0005ZM50.8757 49.1676C50.8481 49.3654 50.8186 49.5052 50.7935 49.5975C50.7671 49.6949 50.755 49.7046 50.7779 49.6617C50.7985 49.6232 50.8908 49.4604 51.1053 49.2986C51.3482 49.1154 51.6732 48.992 52.0285 48.992V52.992C53.2713 52.992 53.9888 52.1396 54.3051 51.5483C54.6091 50.98 54.7541 50.317 54.8373 49.7204L50.8757 49.1676ZM52.0285 48.992H49.6165V52.992H52.0285V48.992ZM47.6165 50.992V63.808H51.6165V50.992H47.6165ZM49.6165 65.808H52.1365V61.808H49.6165V65.808ZM52.1365 65.808C51.7822 65.808 51.4638 65.6855 51.2289 65.5114C51.0211 65.3573 50.9309 65.2034 50.9121 65.1697C50.8909 65.1317 50.9044 65.145 50.9335 65.2439C50.9612 65.338 50.9942 65.479 51.0265 65.6774L54.9745 65.0346C54.8773 64.4376 54.7175 63.7804 54.4049 63.2203C54.0834 62.6442 53.3658 61.808 52.1365 61.808V65.808ZM51.0358 65.7302C51.1077 66.1073 51.1445 66.4979 51.1445 66.904H55.1445C55.1445 66.2541 55.0853 65.6127 54.9652 64.9818L51.0358 65.7302ZM51.1445 66.904C51.1445 67.3101 51.1077 67.7007 51.0358 68.0778L54.9652 68.8262C55.0853 68.1953 55.1445 67.5539 55.1445 66.904H51.1445ZM51.0265 68.1306C50.9942 68.329 50.9612 68.47 50.9335 68.5641C50.9044 68.663 50.8909 68.6763 50.9121 68.6383C50.9309 68.6046 51.0211 68.4507 51.2289 68.2966C51.4638 68.1225 51.7822 68 52.1365 68V72C53.3658 72 54.0834 71.1638 54.4049 70.5877C54.7175 70.0276 54.8773 69.3704 54.9745 68.7734L51.0265 68.1306ZM52.1365 68H40.0045V72H52.1365V68ZM40.0045 68C40.3598 68 40.6848 68.1234 40.9277 68.3066C41.1422 68.4684 41.2345 68.6312 41.2551 68.6697C41.278 68.7126 41.2659 68.7029 41.2395 68.6055C41.2144 68.5132 41.1849 68.3734 41.1573 68.1756L37.1957 68.7284C37.2789 69.325 37.4239 69.988 37.7279 70.5563C38.0442 71.1476 38.7617 72 40.0045 72V68ZM41.1412 68.0778C41.0693 67.7007 41.0325 67.3101 41.0325 66.904H37.0325C37.0325 67.5539 37.0917 68.1953 37.2118 68.8262L41.1412 68.0778ZM41.0325 66.904C41.0325 66.4979 41.0693 66.1073 41.1412 65.7302L37.2118 64.9818C37.0917 65.6127 37.0325 66.2541 37.0325 66.904H41.0325ZM41.1573 65.6324C41.1849 65.4346 41.2144 65.2948 41.2395 65.2025C41.2659 65.1051 41.278 65.0954 41.2551 65.1383C41.2345 65.1768 41.1422 65.3396 40.9277 65.5014C40.6848 65.6846 40.3598 65.808 40.0045 65.808V61.808C38.7617 61.808 38.0442 62.6604 37.7279 63.2517C37.4239 63.82 37.2789 64.483 37.1957 65.0796L41.1573 65.6324ZM40.0045 65.808H42.4885V61.808H40.0045V65.808ZM69.9821 57.004L68.9531 55.289C68.2927 55.6852 67.9185 56.4254 67.991 57.1921C68.0634 57.9588 68.5696 58.6158 69.2925 58.8813L69.9821 57.004ZM72.9341 59.236L74.5341 58.036L74.5341 58.036L72.9341 59.236ZM71.9621 68.308L70.7288 66.7335C70.7245 66.7369 70.7202 66.7403 70.7159 66.7437L71.9621 68.308ZM56.3381 69.604L54.8638 70.9554C54.8834 70.9768 54.9034 70.9977 54.9239 71.0182L56.3381 69.604ZM56.0501 44.944L54.6359 43.5298L54.6359 43.5298L56.0501 44.944ZM62.8541 50.632V48.632C61.7495 48.632 60.8541 49.5274 60.8541 50.632H62.8541ZM62.8541 55.348H60.8541C60.8541 56.4526 61.7495 57.348 62.8541 57.348V55.348ZM65.8061 51.208L64.4774 52.7028C64.4907 52.7147 64.5042 52.7263 64.5178 52.7378L65.8061 51.208ZM62.8541 59.596V57.596C61.7495 57.596 60.8541 58.4914 60.8541 59.596H62.8541ZM62.8541 64.276H60.8541C60.8541 65.3806 61.7495 66.276 62.8541 66.276V64.276ZM65.7701 63.7L67.0195 65.2617L67.0195 65.2617L65.7701 63.7ZM65.8061 60.1L64.5782 61.6787C64.5919 61.6894 64.6057 61.6998 64.6197 61.7101L65.8061 60.1ZM71.2221 51.316C71.2221 53.1015 70.5175 54.3504 68.9531 55.289L71.0111 58.719C73.7667 57.0656 75.2221 54.5225 75.2221 51.316H71.2221ZM69.2925 58.8813C70.0861 59.1729 70.7607 59.6715 71.3341 60.436L74.5341 58.036C73.5234 56.6885 72.2301 55.6991 70.6717 55.1267L69.2925 58.8813ZM71.3341 60.436C71.7694 61.0165 72.1221 62.0289 72.1221 63.736H76.1221C76.1221 61.5551 75.6828 59.5675 74.5341 58.036L71.3341 60.436ZM72.1221 63.736C72.1221 65.0766 71.6576 66.0059 70.7288 66.7335L73.1954 69.8825C75.1466 68.3541 76.1221 66.2354 76.1221 63.736H72.1221ZM70.7159 66.7437C69.7871 67.4836 68.2593 68 65.8421 68V72C68.7529 72 71.3051 71.3884 73.2082 69.8723L70.7159 66.7437ZM65.8421 68H57.3461V72H65.8421V68ZM57.3461 68C57.36 68 57.4261 68.0028 57.5194 68.0395C57.6162 68.0775 57.6967 68.1341 57.7523 68.1898L54.9239 71.0182C55.5996 71.6939 56.4618 72 57.3461 72V68ZM57.8124 68.2526C57.8636 68.3084 57.9032 68.3761 57.9259 68.4402C57.947 68.4994 57.9421 68.5229 57.9421 68.488H53.9421C53.9421 69.3553 54.2059 70.2378 54.8638 70.9554L57.8124 68.2526ZM57.9421 68.488V45.448H53.9421V68.488H57.9421ZM57.9421 45.448C57.9421 45.3904 57.9475 45.4368 57.9247 45.5431C57.9125 45.5998 57.8857 45.7057 57.8267 45.8367C57.7684 45.9663 57.6596 46.1629 57.4643 46.3582L54.6359 43.5298C54.1981 43.9676 54.0628 44.4749 54.0135 44.7049C53.9547 44.9792 53.9421 45.2416 53.9421 45.448H57.9421ZM57.4643 46.3582C57.1877 46.6348 56.9013 46.7341 56.7724 46.7685C56.6406 46.8036 56.566 46.8 56.5901 46.8V42.8C56.2365 42.8 55.3328 42.8328 54.6359 43.5298L57.4643 46.3582ZM56.5901 46.8H64.7981V42.8H56.5901V46.8ZM64.7981 46.8C67.4039 46.8 68.9906 47.3134 69.8924 48.011C70.6968 48.6331 71.2221 49.6092 71.2221 51.316H75.2221C75.2221 48.6787 74.3434 46.3969 72.3398 44.847C70.4335 43.3726 67.8083 42.8 64.7981 42.8V46.8ZM60.8541 50.632V55.348H64.8541V50.632H60.8541ZM62.8541 57.348H63.0341V53.348H62.8541V57.348ZM63.0341 57.348C64.3452 57.348 65.6782 57.141 66.7355 56.4361C67.9359 55.6358 68.4901 54.3946 68.4901 53.044H64.4901C64.4901 53.1768 64.4661 53.1959 64.4852 53.1576C64.5085 53.111 64.5375 53.094 64.5167 53.1079C64.422 53.171 64.027 53.348 63.0341 53.348V57.348ZM68.4901 53.044C68.4901 51.8653 68.1638 50.5787 67.0944 49.6782L64.5178 52.7378C64.4925 52.7165 64.4715 52.6926 64.4567 52.671C64.4424 52.6501 64.4405 52.6412 64.4449 52.6532C64.4557 52.6821 64.4901 52.7974 64.4901 53.044H68.4901ZM67.1348 49.7132C66.1414 48.8301 64.785 48.632 63.6101 48.632V52.632C64.0123 52.632 64.2729 52.6705 64.4257 52.7106C64.5778 52.7505 64.558 52.7745 64.4774 52.7028L67.1348 49.7132ZM63.6101 48.632H62.8541V52.632H63.6101V48.632ZM60.8541 59.596V64.276H64.8541V59.596H60.8541ZM62.8541 66.276H63.5021V62.276H62.8541V66.276ZM63.5021 66.276C64.7064 66.276 66.0142 66.066 67.0195 65.2617L64.5207 62.1383C64.5547 62.1111 64.5242 62.1495 64.3508 62.1935C64.1758 62.238 63.902 62.276 63.5021 62.276V66.276ZM67.0195 65.2617C68.1322 64.3716 68.4901 63.075 68.4901 61.864H64.4901C64.4901 62.1005 64.4555 62.2041 64.4481 62.2228C64.4453 62.23 64.449 62.2186 64.4643 62.1976C64.48 62.1758 64.4999 62.1549 64.5207 62.1383L67.0195 65.2617ZM68.4901 61.864C68.4901 60.7091 68.1726 59.3594 66.9925 58.4899L64.6197 61.7101C64.5708 61.6741 64.5292 61.6316 64.4979 61.5892C64.4674 61.5481 64.4557 61.5195 64.4544 61.5161C64.4535 61.5139 64.463 61.5377 64.4724 61.5966C64.4818 61.6557 64.4901 61.7431 64.4901 61.864H68.4901ZM67.034 58.5213C66.0535 57.7587 64.7464 57.596 63.6101 57.596V61.596C64.0272 61.596 64.3095 61.6309 64.4857 61.6713C64.6673 61.713 64.6612 61.7432 64.5782 61.6787L67.034 58.5213ZM63.6101 57.596H62.8541V61.596H63.6101V57.596ZM89.1251 59.128L87.1542 58.7882C87.1509 58.8071 87.1479 58.8261 87.1452 58.8452L89.1251 59.128ZM83.9771 60.136V58.136C82.8725 58.136 81.9771 59.0314 81.9771 60.136H83.9771ZM83.9771 63.736H81.9771C81.9771 64.8406 82.8725 65.736 83.9771 65.736V63.736ZM91.4291 65.32L89.4474 65.5902C89.4493 65.6041 89.4514 65.618 89.4536 65.6319L91.4291 65.32ZM91.3211 68.776L89.3515 68.4284L89.3515 68.4284L91.3211 68.776ZM83.9771 51.172V49.172C82.8725 49.172 81.9771 50.0674 81.9771 51.172H83.9771ZM83.9771 54.808H81.9771C81.9771 55.9126 82.8725 56.808 83.9771 56.808V54.808ZM88.6211 56.808C88.3574 56.808 88.0906 56.7439 87.8499 56.6172C87.6184 56.4953 87.4634 56.3437 87.3695 56.2284C87.2031 56.0241 87.1809 55.8771 87.2039 55.9619C87.2465 56.1188 87.3051 56.5332 87.3051 57.328H91.3051C91.3051 56.4428 91.2497 55.5972 91.0643 54.9141C90.9733 54.5789 90.8086 54.1169 90.4712 53.7026C90.0852 53.2286 89.4518 52.808 88.6211 52.808V56.808ZM87.3051 57.328C87.3051 57.683 87.2619 58.1636 87.1542 58.7882L91.096 59.4678C91.2283 58.7004 91.3051 57.981 91.3051 57.328H87.3051ZM87.1452 58.8452C87.1101 59.0909 87.0828 59.0489 87.1726 58.8917C87.2261 58.798 87.3538 58.607 87.6002 58.4345C87.8701 58.2455 88.2033 58.136 88.5491 58.136V62.136C89.6531 62.136 90.3327 61.4238 90.6456 60.8763C90.9274 60.3831 91.0441 59.8371 91.105 59.4108L87.1452 58.8452ZM88.5491 58.136H83.9771V62.136H88.5491V58.136ZM81.9771 60.136V63.736H85.9771V60.136H81.9771ZM83.9771 65.736H90.6011V61.736H83.9771V65.736ZM90.6011 65.736C90.2337 65.736 89.9027 65.6054 89.6602 65.4182C89.4476 65.254 89.3588 65.0914 89.3416 65.0585C89.3217 65.0203 89.3356 65.0357 89.3631 65.1396C89.3893 65.2383 89.4195 65.3851 89.4474 65.5902L93.4108 65.0498C93.3281 64.4438 93.1849 63.7762 92.8865 63.2055C92.5814 62.6217 91.8679 61.736 90.6011 61.736V65.736ZM89.4536 65.6319C89.5072 65.9713 89.5371 66.3579 89.5371 66.796H93.5371C93.5371 66.1781 93.495 65.5807 93.4046 65.0081L89.4536 65.6319ZM89.5371 66.796C89.5371 67.1333 89.4864 67.6641 89.3515 68.4284L93.2907 69.1236C93.4438 68.2559 93.5371 67.4667 93.5371 66.796H89.5371ZM89.3515 68.4284C89.2947 68.7505 89.2499 68.7809 89.3092 68.68C89.3463 68.617 89.4557 68.4497 89.6791 68.2915C89.9269 68.1159 90.2493 68 90.6011 68V72C91.7495 72 92.4408 71.2455 92.757 70.708C93.0563 70.1991 93.2035 69.6175 93.2907 69.1236L89.3515 68.4284ZM90.6011 68H78.2891V72H90.6011V68ZM78.2891 68C78.0537 68 78.2485 67.9438 78.5273 68.1713C78.6787 68.2948 78.7918 68.4538 78.858 68.6158C78.9192 68.7655 78.9211 68.8695 78.9211 68.884H74.9211C74.9211 69.684 75.1861 70.6077 75.9988 71.2707C76.7337 71.8702 77.6125 72 78.2891 72V68ZM78.9211 68.884V45.736H74.9211V68.884H78.9211ZM78.9211 45.736C78.9211 45.6761 78.9397 46.0047 78.6261 46.3591C78.2711 46.7604 77.8493 46.8 77.7491 46.8V42.8C77.0969 42.8 76.261 42.9956 75.6301 43.7089C75.0405 44.3753 74.9211 45.1719 74.9211 45.736H78.9211ZM77.7491 46.8H90.6371V42.8H77.7491V46.8ZM90.6371 46.8C90.3262 46.8 90.0282 46.7121 89.7785 46.5609C89.5446 46.4194 89.4057 46.255 89.3354 46.1558C89.2141 45.9843 89.219 45.897 89.2575 46.0603C89.3287 46.3618 89.3931 46.9742 89.3931 48.004H93.3931C93.3931 46.8978 93.3315 45.9082 93.1506 45.1417C93.0632 44.771 92.9106 44.2832 92.6003 43.8447C92.2545 43.3563 91.6 42.8 90.6371 42.8V46.8ZM89.3931 48.004C89.3931 49.0212 89.3287 49.6226 89.2587 49.9158C89.2209 50.0744 89.2174 49.9833 89.3416 49.8098C89.4135 49.7094 89.5535 49.5463 89.787 49.4065C90.0359 49.2575 90.3308 49.172 90.6371 49.172V53.172C91.5898 53.172 92.2439 52.6273 92.5941 52.1382C92.9073 51.7007 93.0613 51.2136 93.1495 50.8442C93.3315 50.0814 93.3931 49.0988 93.3931 48.004H89.3931ZM90.6371 49.172H83.9771V53.172H90.6371V49.172ZM81.9771 51.172V54.808H85.9771V51.172H81.9771ZM83.9771 56.808H88.6211V52.808H83.9771V56.808Z" fill="black" mask="url(#path-10-outside-2_101_29)"/>
</svg>
